# xmcd
#
# Track frame offsets: 
#        150
#        12039
#        22290
#        34905
#        47706
#        60598
#        73015
#        83980
#        95777
#        107201
#        119454
#        133085
#        143751
#        157144
#        169159
#        184406
#        198771
#        211193
#        223652
#        237027
#        251455
#        264974
#        278266
#        291696
#        304878
#        317253
#        329977
#        343058
#
# Disc length: 4750 seconds
#
# Revision: 1
# Processed by: cddbd v1.5.2PL0 Copyright (c) Steve Scherf et al.
# Submitted via: ExactAudioCopy v0.99pb4
#
DISCID=b1128c1c
DTITLE=Lowell Fulson - Classic Cuts:1946-1953 [CD1]
DYEAR=1900
DGENRE=Blues
TTITLE0=Crying Blues (Crying Won't Make Me Stay)
TTITLE1=You're Gonna Miss Me (When I'm Gone)
TTITLE2=Miss Katy Lee Blues
TTITLE3=Rambling Blues
TTITLE4=Fulson Blues
TTITLE5=San Francisco Blues
TTITLE6=Crying Blues
TTITLE7=You're Gonna Miss Me When I'm Gone
TTITLE8=Miss Katie Lee Blues
TTITLE9=Rambling Blues
TTITLE10=Fulson's Blues
TTITLE11=San Francisco Blues
TTITLE12=Trouble Blues
TTITLE13=I Want to See My Baby
TTITLE14=Black Widow Spider Blues
TTITLE15=Don't Be So Evil
TTITLE16=I Want to See My Baby (alt.)
TTITLE17=Don't Be So Evil (alt.)
TTITLE18=Scotty's Blues
TTITLE19=The Train Is Leaving
TTITLE20=Jelly, Jelly
TTITLE21=Mean Woman Blues
TTITLE22=9.30 Shuffle
TTITLE23=Thinkin' Blues
TTITLE24=Fulson Boogie
TTITLE25=Mean Woman Blues
TTITLE26=Thinkin' Blues
TTITLE27=Tryin' to Find My Baby
EXTD=CD 1/4 - JSP7728A
EXTT0=
EXTT1=
EXTT2=
EXTT3=
EXTT4=
EXTT5=
EXTT6=
EXTT7=
EXTT8=
EXTT9=
EXTT10=
EXTT11=
EXTT12=
EXTT13=
EXTT14=
EXTT15=
EXTT16=
EXTT17=
EXTT18=
EXTT19=
EXTT20=
EXTT21=
EXTT22=
EXTT23=
EXTT24=
EXTT25=
EXTT26=
EXTT27=
PLAYORDER=
